<?xml version="1.0" encoding="UTF-8"?>
<svg width="488px" height="128px" viewBox="0 0 488 128" version="1.1" xmlns="http://www.w3.org/2000/svg" xmlns:xlink="http://www.w3.org/1999/xlink">
    <!-- Generator: Sketch 41.2 (35397) - http://www.bohemiancoding.com/sketch -->
    <title>music you love</title>
    <desc>Created with Sketch.</desc>
    <defs></defs>
    <g id="UI-Kit" stroke="none" stroke-width="1" fill="none" fill-rule="evenodd">
        <g id="myl_1200x600" transform="translate(-356.000000, -86.000000)" fill="#FFFFFF">
            <g id="MUSIC-YOU-LOVE" transform="translate(300.000000, 0.000000)">
                <g id="music-you-love" transform="translate(56.000000, 86.000000)">
                    <g id="Group-2">
                        <path d="M425.628798,125.92938 C425.628798,125.92938 487.969524,85.3296541 487.969524,50.0101558 C487.969524,8.5168532 441.243408,0.213550731 425.564056,30.9259057 L425.434572,30.9259057 C409.75522,0.213550731 363.029105,8.5168532 363.029105,50.0101558 C363.029105,85.3296541 425.36983,125.92938 425.36983,125.92938 L425.628798,125.92938" id="8989-copy-3"></path>
                        <path d="M33.4952075,7.55568897 L33.4952075,66.682111 C30.0030173,64.0519278 25.2768549,62.9283381 20.0824658,63.921506 C9.29862152,65.9833786 0.56326867,76.3396409 0.56326867,87.057785 C0.56326867,97.7807789 9.29862152,104.79664 20.0824658,102.734767 C30.8614328,100.673827 39.5967856,90.3175649 39.5967856,79.594571 L39.5967856,27.8487563 L83.0558057,44.4961902 L83.0558057,91.0546443 C79.5636155,88.4244611 74.8423304,87.2999388 69.6381866,88.2949718 C58.8640971,90.3549793 50.1238668,100.712174 50.1238668,111.430318 C50.1238668,122.153312 58.8640971,129.168241 69.6381866,127.108233 C80.422031,125.04636 89.1573838,114.690098 89.1573838,103.967104 L89.1573838,22.8583973 C89.1573838,20.7729665 88.1472863,19.26456 85.3432878,18.0215844 L39.5967866,0.843381298 C34.7134537,-0.863679468 33.4952076,1.85716316 33.4952075,7.55568897 Z" id="music-copy-3"></path>
                        <path d="M166.015423,85.5866591 L140.316292,39.113073 L155.630158,39.113073 L173.114955,71.9317466 L189.426276,39.113073 L204.329426,39.113073 L158.798544,127.254654 L143.719373,127.254654 L166.015423,85.5866591 Z M205.418735,67.2433647 C205.418735,58.9995852 208.371954,51.9866173 214.278481,46.2042507 C220.185008,40.421884 227.382258,37.5307441 235.870446,37.5307441 C244.39775,37.5307441 251.634115,40.4414188 257.579758,46.2628555 C263.447169,52.0842922 266.38083,59.2340031 266.38083,67.7122029 C266.38083,76.2685427 263.427611,83.4377884 257.521084,89.2201551 C251.575441,94.9634517 244.280403,97.8350569 235.635751,97.8350569 C227.069331,97.8350569 219.891639,94.9048475 214.10246,89.0443408 C208.313281,83.2619741 205.418735,75.9950548 205.418735,67.2433647 Z M218.913713,67.4777838 C218.913713,73.1820104 220.439217,77.6945329 223.490271,81.0154867 C226.619556,84.3755105 230.74624,86.0554973 235.870446,86.0554973 C241.033767,86.0554973 245.160451,84.3950453 248.250621,81.0740915 C251.340791,77.7531376 252.885853,73.318754 252.885853,67.7708077 C252.885853,62.2228613 251.340791,57.7884777 248.250621,54.4675239 C245.121335,51.1075 240.994651,49.4275133 235.870446,49.4275133 C230.824472,49.4275133 226.736904,51.1075 223.607618,54.4675239 C220.478332,57.8275477 218.913713,62.1642577 218.913713,67.4777838 Z M290.646297,39.113073 L290.646297,71.8731419 C290.646297,81.3280928 294.381826,86.0554973 301.852996,86.0554973 C309.324166,86.0554973 313.059695,81.3280928 313.059695,71.8731419 L313.059695,39.113073 L326.261304,39.113073 L326.261304,72.1661657 C326.261304,76.737361 325.69413,80.6833764 324.559763,84.0043302 C323.464513,86.9736536 321.567412,89.6499115 318.868403,92.0331843 C314.409171,95.9011187 308.737425,97.8350569 301.852996,97.8350569 C295.007684,97.8350569 289.355496,95.9011187 284.896263,92.0331843 C282.158138,89.6499115 280.221922,86.9736536 279.087556,84.0043302 C277.992306,81.3475671 277.444689,77.4015518 277.444689,72.1661657 L277.444689,39.113073 L290.646297,39.113073 Z" id="you"></path>
                    </g>
                </g>
            </g>
        </g>
    </g>
</svg>
